<?xml version="1.0" standalone="no"?>
<!DOCTYPE svg PUBLIC "-//W3C//DTD SVG 20010904//EN"
 "http://www.w3.org/TR/2001/REC-SVG-20010904/DTD/svg10.dtd">
<svg version="1.0" xmlns="http://www.w3.org/2000/svg"
 width="1050.000000pt" height="600.000000pt" viewBox="0 0 1050.000000 600.000000"
 preserveAspectRatio="xMidYMid meet">
<metadata>
Created by potrace 1.16, written by Peter Selinger 2001-2019
</metadata>
<g transform="translate(0.000000,600.000000) scale(0.100000,-0.100000)"
fill="#000000" stroke="none">
<path d="M0 3000 l0 -3000 5250 0 5250 0 0 3000 0 3000 -5250 0 -5250 0 0
-3000z m6316 1069 c85 -41 143 -137 131 -215 -4 -25 0 -36 24 -58 37 -36 53
-93 39 -145 -23 -87 -93 -131 -208 -131 l-72 0 0 -50 c0 -27 4 -50 8 -50 8 0
7 -26 -3 -95 -5 -30 -6 -30 -59 -27 -63 4 -122 -21 -152 -65 -16 -24 -19 -52
-22 -185 l-4 -158 -69 0 -69 0 0 265 0 265 64 0 c67 0 76 -6 76 -51 0 -24 16
-25 29 0 15 27 90 61 134 61 l37 0 0 45 0 45 -73 0 c-90 0 -132 12 -170 47
-72 69 -77 164 -12 233 17 19 24 40 27 88 6 81 42 135 117 174 68 36 162 39
227 7z m-1226 -789 l0 -390 -65 0 c-54 0 -66 3 -75 20 -10 19 -11 19 -57 -5
-33 -18 -62 -25 -101 -25 -85 0 -131 18 -189 76 -78 78 -101 178 -67 293 18
63 81 136 139 162 57 26 168 26 220 -1 22 -11 41 -20 42 -20 2 0 3 63 3 140
l0 140 75 0 75 0 0 -390z m-1866 194 l128 -175 64 88 c35 48 92 127 127 175
l62 87 78 1 77 0 0 -380 0 -380 -80 0 -80 0 -2 248 -3 247 -88 -122 -88 -123
-68 0 -68 0 -86 117 -87 118 0 -243 0 -242 -85 0 -85 0 0 380 0 380 78 0 77
-1 129 -175z m2516 96 l0 -70 -95 0 -95 0 0 -305 0 -305 -75 0 -75 0 0 305 0
305 -100 0 -100 0 0 70 0 70 270 0 270 0 0 -70z m-1462 -166 c122 -61 180
-198 142 -336 -15 -53 -67 -117 -123 -152 -67 -41 -170 -48 -245 -16 -96 42
-172 154 -172 255 0 71 30 136 88 195 64 63 99 78 193 79 51 1 76 -4 117 -25z
m2403 15 c50 -17 110 -64 141 -110 31 -47 53 -137 43 -185 l-6 -34 -184 0
c-117 0 -185 -4 -185 -10 0 -15 35 -47 71 -65 24 -13 49 -16 103 -12 39 3 80
8 91 11 17 6 25 0 43 -32 12 -22 22 -43 22 -46 0 -15 -100 -48 -161 -53 -266
-23 -427 259 -258 451 75 85 183 117 280 85z m704 -13 c110 -52 160 -144 156
-283 l-1 -33 -190 0 c-185 0 -190 -1 -180 -19 5 -11 25 -30 42 -43 28 -19 45
-23 113 -23 44 0 91 4 105 8 23 7 28 4 47 -37 l22 -44 -52 -22 c-281 -121
-550 157 -388 401 72 107 214 148 326 95z"/>
<path d="M6115 4046 c-85 -39 -134 -118 -121 -195 5 -32 2 -41 -20 -62 -74
-68 -64 -167 23 -220 25 -16 57 -23 119 -27 l84 -5 0 60 c0 57 -2 61 -45 103
-24 24 -42 47 -38 53 3 5 23 -8 44 -29 l39 -38 0 117 c0 97 3 117 15 117 12 0
15 -13 15 -60 l0 -61 40 32 c58 46 62 27 7 -29 l-47 -48 0 -108 0 -109 74 6
c40 3 87 12 102 20 95 49 112 162 35 231 -16 15 -21 31 -21 74 0 116 -95 201
-225 202 -16 0 -53 -11 -80 -24z"/>
<path d="M4732 3280 c-34 -21 -72 -87 -72 -125 0 -38 38 -104 72 -125 58 -35
147 -18 183 36 23 35 29 103 13 149 -26 77 -123 109 -196 65z"/>
<path d="M4080 3262 c-65 -65 -66 -160 -3 -219 83 -78 205 -15 205 106 0 86
-55 151 -127 151 -30 0 -45 -8 -75 -38z"/>
<path d="M6564 3294 c-21 -8 -40 -14 -41 -14 -3 0 -43 -68 -43 -74 0 -3 56 -6
125 -6 l126 0 -15 28 c-33 63 -89 88 -152 66z"/>
<path d="M7252 3303 c-27 -5 -92 -67 -92 -88 0 -12 21 -15 120 -15 80 0 120 4
120 11 0 16 -39 68 -58 78 -25 12 -64 18 -90 14z"/>
</g>
</svg>
