<svg width="384" height="115" viewBox="0 0 384 115" fill="none" xmlns="http://www.w3.org/2000/svg">
<path d="M82.992 25.592V95H71.616V50.168C71.616 48.376 71.712 46.44 71.904 44.36L50.928 83.768C49.936 85.656 48.416 86.6 46.368 86.6H44.544C42.496 86.6 40.976 85.656 39.984 83.768L18.768 44.216C18.864 45.272 18.944 46.312 19.008 47.336C19.072 48.36 19.104 49.304 19.104 50.168V95H7.728V25.592H17.472C18.048 25.592 18.544 25.608 18.96 25.64C19.376 25.672 19.744 25.752 20.064 25.88C20.416 26.008 20.72 26.216 20.976 26.504C21.264 26.792 21.536 27.176 21.792 27.656L42.576 66.2C43.12 67.224 43.616 68.28 44.064 69.368C44.544 70.456 45.008 71.576 45.456 72.728C45.904 71.544 46.368 70.408 46.848 69.32C47.328 68.2 47.84 67.128 48.384 66.104L68.88 27.656C69.136 27.176 69.408 26.792 69.696 26.504C69.984 26.216 70.288 26.008 70.608 25.88C70.96 25.752 71.344 25.672 71.76 25.64C72.176 25.608 72.672 25.592 73.248 25.592H82.992ZM116.898 44.984C120.546 44.984 123.858 45.576 126.834 46.76C129.842 47.944 132.402 49.624 134.514 51.8C136.658 53.976 138.306 56.632 139.458 59.768C140.61 62.904 141.186 66.408 141.186 70.28C141.186 74.184 140.61 77.704 139.458 80.84C138.306 83.976 136.658 86.648 134.514 88.856C132.402 91.064 129.842 92.76 126.834 93.944C123.858 95.128 120.546 95.72 116.898 95.72C113.218 95.72 109.874 95.128 106.866 93.944C103.858 92.76 101.282 91.064 99.138 88.856C97.026 86.648 95.378 83.976 94.194 80.84C93.042 77.704 92.466 74.184 92.466 70.28C92.466 66.408 93.042 62.904 94.194 59.768C95.378 56.632 97.026 53.976 99.138 51.8C101.282 49.624 103.858 47.944 106.866 46.76C109.874 45.576 113.218 44.984 116.898 44.984ZM116.898 86.6C120.994 86.6 124.018 85.224 125.97 82.472C127.954 79.72 128.946 75.688 128.946 70.376C128.946 65.064 127.954 61.016 125.97 58.232C124.018 55.448 120.994 54.056 116.898 54.056C112.738 54.056 109.65 55.464 107.634 58.28C105.65 61.064 104.658 65.096 104.658 70.376C104.658 75.656 105.65 79.688 107.634 82.472C109.65 85.224 112.738 86.6 116.898 86.6ZM181.143 58.328C179.799 56.696 178.327 55.544 176.727 54.872C175.159 54.2 173.463 53.864 171.639 53.864C169.847 53.864 168.231 54.2 166.791 54.872C165.351 55.544 164.119 56.568 163.095 57.944C162.071 59.288 161.287 61.016 160.743 63.128C160.199 65.208 159.927 67.672 159.927 70.52C159.927 73.4 160.151 75.848 160.599 77.864C161.079 79.848 161.751 81.48 162.615 82.76C163.479 84.008 164.535 84.92 165.783 85.496C167.031 86.04 168.423 86.312 169.959 86.312C172.423 86.312 174.519 85.8 176.247 84.776C177.975 83.752 179.607 82.296 181.143 80.408V58.328ZM192.999 23.672V95H185.751C184.183 95 183.191 94.28 182.775 92.84L181.767 88.088C179.783 90.36 177.495 92.2 174.903 93.608C172.343 95.016 169.351 95.72 165.927 95.72C163.239 95.72 160.775 95.16 158.535 94.04C156.295 92.92 154.359 91.304 152.727 89.192C151.127 87.048 149.879 84.408 148.983 81.272C148.119 78.136 147.687 74.552 147.687 70.52C147.687 66.872 148.183 63.48 149.175 60.344C150.167 57.208 151.591 54.488 153.447 52.184C155.303 49.88 157.527 48.088 160.119 46.808C162.711 45.496 165.623 44.84 168.855 44.84C171.607 44.84 173.959 45.272 175.911 46.136C177.863 47 179.607 48.168 181.143 49.64V23.672H192.999Z" fill="white"/>
<path d="M255.052 36.2H234.124V95H221.212V36.2H200.284V25.592H255.052V36.2ZM263.79 54.296C265.326 51.352 267.15 49.048 269.262 47.384C271.374 45.688 273.87 44.84 276.75 44.84C279.022 44.84 280.846 45.336 282.222 46.328L281.454 55.208C281.294 55.784 281.054 56.2 280.734 56.456C280.446 56.68 280.046 56.792 279.534 56.792C279.054 56.792 278.334 56.712 277.374 56.552C276.446 56.392 275.534 56.312 274.638 56.312C273.326 56.312 272.158 56.504 271.134 56.888C270.11 57.272 269.182 57.832 268.35 58.568C267.55 59.272 266.83 60.136 266.19 61.16C265.582 62.184 265.006 63.352 264.462 64.664V95H252.606V45.752H259.566C260.782 45.752 261.63 45.976 262.11 46.424C262.59 46.84 262.91 47.608 263.07 48.728L263.79 54.296ZM318.74 64.712C318.74 63.176 318.516 61.736 318.068 60.392C317.652 59.016 317.012 57.816 316.148 56.792C315.284 55.768 314.18 54.968 312.836 54.392C311.524 53.784 309.988 53.48 308.228 53.48C304.804 53.48 302.1 54.456 300.116 56.408C298.164 58.36 296.916 61.128 296.372 64.712H318.74ZM296.132 71.864C296.324 74.392 296.772 76.584 297.476 78.44C298.18 80.264 299.108 81.784 300.26 83C301.412 84.184 302.772 85.08 304.34 85.688C305.94 86.264 307.7 86.552 309.62 86.552C311.54 86.552 313.188 86.328 314.564 85.88C315.972 85.432 317.188 84.936 318.212 84.392C319.268 83.848 320.18 83.352 320.948 82.904C321.748 82.456 322.516 82.232 323.252 82.232C324.244 82.232 324.98 82.6 325.46 83.336L328.868 87.656C327.556 89.192 326.084 90.488 324.452 91.544C322.82 92.568 321.108 93.4 319.316 94.04C317.556 94.648 315.748 95.08 313.892 95.336C312.068 95.592 310.292 95.72 308.564 95.72C305.14 95.72 301.956 95.16 299.012 94.04C296.068 92.888 293.508 91.208 291.332 89C289.156 86.76 287.444 84.008 286.196 80.744C284.948 77.448 284.324 73.64 284.324 69.32C284.324 65.96 284.868 62.808 285.956 59.864C287.044 56.888 288.596 54.312 290.612 52.136C292.66 49.928 295.14 48.184 298.052 46.904C300.996 45.624 304.308 44.984 307.988 44.984C311.092 44.984 313.956 45.48 316.58 46.472C319.204 47.464 321.46 48.92 323.348 50.84C325.236 52.728 326.708 55.064 327.764 57.848C328.852 60.6 329.396 63.752 329.396 67.304C329.396 69.096 329.204 70.312 328.82 70.952C328.436 71.56 327.7 71.864 326.612 71.864H296.132ZM370.022 64.712C370.022 63.176 369.798 61.736 369.35 60.392C368.934 59.016 368.294 57.816 367.43 56.792C366.566 55.768 365.462 54.968 364.118 54.392C362.806 53.784 361.27 53.48 359.51 53.48C356.086 53.48 353.382 54.456 351.398 56.408C349.446 58.36 348.198 61.128 347.654 64.712H370.022ZM347.414 71.864C347.606 74.392 348.054 76.584 348.758 78.44C349.462 80.264 350.39 81.784 351.542 83C352.694 84.184 354.054 85.08 355.622 85.688C357.222 86.264 358.982 86.552 360.902 86.552C362.822 86.552 364.47 86.328 365.846 85.88C367.254 85.432 368.47 84.936 369.494 84.392C370.55 83.848 371.462 83.352 372.23 82.904C373.03 82.456 373.798 82.232 374.534 82.232C375.526 82.232 376.262 82.6 376.742 83.336L380.15 87.656C378.838 89.192 377.366 90.488 375.734 91.544C374.102 92.568 372.39 93.4 370.598 94.04C368.838 94.648 367.03 95.08 365.174 95.336C363.35 95.592 361.574 95.72 359.846 95.72C356.422 95.72 353.238 95.16 350.294 94.04C347.35 92.888 344.79 91.208 342.614 89C340.438 86.76 338.726 84.008 337.478 80.744C336.23 77.448 335.605 73.64 335.605 69.32C335.605 65.96 336.15 62.808 337.238 59.864C338.326 56.888 339.878 54.312 341.894 52.136C343.942 49.928 346.422 48.184 349.334 46.904C352.278 45.624 355.59 44.984 359.27 44.984C362.374 44.984 365.238 45.48 367.862 46.472C370.486 47.464 372.742 48.92 374.63 50.84C376.518 52.728 377.99 55.064 379.046 57.848C380.134 60.6 380.677 63.752 380.677 67.304C380.677 69.096 380.486 70.312 380.102 70.952C379.718 71.56 378.982 71.864 377.894 71.864H347.414Z" fill="#F78620"/>
<path d="M291.334 17.7999C290.962 15.2266 289.726 12.8603 287.803 11.0699C285.678 9.09028 282.906 8 280 8C277.094 8 274.323 9.09028 272.197 11.0699C270.275 12.8603 269.039 15.2266 268.667 17.7999C264.526 19.6079 261.795 23.7324 261.795 28.2981C261.795 34.6127 266.933 39.75 273.247 39.75C275.194 39.75 277.09 39.2552 278.77 38.3303V50H281.23V38.3303C282.91 39.2552 284.806 39.75 286.753 39.75C293.067 39.75 298.205 34.6127 298.205 28.2981C298.205 23.7324 295.474 19.6078 291.334 17.7999ZM286.753 37.2891C284.745 37.2891 282.805 36.6188 281.231 35.3924V27.866L286.75 24.9641L285.604 22.786L281.231 25.0856V20.2415H278.77V30.5401L274.396 28.2405L273.251 30.4186L278.77 33.3205V35.3924C277.196 36.6188 275.255 37.2891 273.248 37.2891C268.29 37.2891 264.257 33.2557 264.257 28.2981C264.257 24.5073 266.654 21.1039 270.222 19.8291L270.975 19.5602L271.035 18.7632C271.206 16.5098 272.214 14.4172 273.874 12.8709C275.543 11.3168 277.718 10.4609 280 10.4609C282.282 10.4609 284.458 11.3168 286.126 12.8708C287.787 14.4171 288.795 16.5097 288.965 18.7631L289.026 19.5601L289.778 19.829C293.347 21.1038 295.744 24.5072 295.744 28.298C295.744 33.2557 291.711 37.2891 286.753 37.2891Z" fill="#F78620"/>
</svg>
